<svg version="1" xmlns="http://www.w3.org/2000/svg" width="640" height="640" viewBox="0 0 480.000000 480.000000"><path d="M35 239.9V480h410.4l-3-3.2c-1.6-1.8-3.1-3.5-3.4-3.8-.3-.3-4.1-4.8-8.5-10-10.4-12.4-11.6-13.8-14-16.5-1.1-1.2-2.9-3.3-4-4.6-2.1-2.7-29.5-35-32.9-38.9-1.2-1.4-7.1-8.4-13.1-15.5-6-7.2-11.2-13.2-11.5-13.5-.3-.3-4.1-4.8-8.5-10s-8.4-10-9-10.6c-2.8-3.1-11.1-12.9-12.9-15.2-1.1-1.5-2.6-3.2-3.2-3.7-.6-.6-4.6-5.3-9-10.5-4.3-5.2-8.3-10-8.9-10.6-.5-.6-3-3.5-5.5-6.4-2.5-3-6-7.1-7.9-9.2-1.8-2.1-2.9-3.9-2.5-3.9 1.9-.3 3-.5 5.9-1.2 2.7-.7 4.2-1 10-2.2 2.8-.6 17.5-5.1 20.5-6.3 1.4-.5 3-1.1 3.5-1.2 4.9-1.2 19.6-7.5 29.5-12.6 45.6-23.3 75-56.8 85.1-96.9 1.8-7.3 2.3-11.9 2.3-24 .1-19.4-1.4-30.8-5.8-43.3-.9-2.3-1.6-4.6-1.7-5-.1-.4-.5-1.6-.7-2.7-1.2-4.3-10.3-21.4-15.4-28.6-7.2-10.4-13.8-17.8-22.4-25.2-8.9-7.7-10-8.6-14.9-11.8-2.2-1.4-5.8-3.7-8-5.2-14.8-9.7-48.3-21.7-68-24.3-2.9-.4-6.9-1-13-2.1-1.6-.3-60.7-.7-131.2-1L35-.1v240z"/></svg>