<?xml version="1.0" standalone="no"?>
<!DOCTYPE svg PUBLIC "-//W3C//DTD SVG 20010904//EN"
 "http://www.w3.org/TR/2001/REC-SVG-20010904/DTD/svg10.dtd">
<svg version="1.0" xmlns="http://www.w3.org/2000/svg"
 width="1080.000000pt" height="1080.000000pt" viewBox="0 0 1080.000000 1080.000000"
 preserveAspectRatio="xMidYMid meet">
<metadata>
Created by potrace 1.14, written by Peter Selinger 2001-2017
</metadata>
<g transform="translate(0.000000,1080.000000) scale(0.100000,-0.100000)"
fill="#000000" stroke="none">
<path d="M350 5400 l0 -5400 5046 0 c2838 0 5044 4 5042 9 -2 4 -50 59 -108
121 -58 61 -118 126 -135 144 -62 67 -241 260 -275 296 -19 20 -82 88 -140
150 -58 63 -116 125 -130 140 -23 24 -197 211 -264 284 -15 17 -77 83 -136
146 -59 63 -122 131 -140 150 -80 87 -219 236 -255 275 -39 42 -211 227 -269
289 -15 17 -72 78 -126 136 -54 58 -111 119 -127 136 -15 17 -75 82 -133 144
-58 62 -118 127 -135 145 -16 17 -78 83 -136 146 -59 63 -121 130 -139 149
-18 19 -79 85 -137 147 -57 61 -116 124 -130 140 -14 15 -74 80 -133 143 -59
63 -122 131 -140 150 -18 19 -78 84 -134 144 -55 60 -109 117 -118 128 -9 11
-70 76 -135 146 -65 69 -146 156 -179 192 -34 36 -76 81 -93 100 l-32 35 93
18 c51 9 107 19 123 22 32 6 151 33 310 71 55 13 147 38 205 55 58 16 116 32
129 35 13 3 32 9 43 15 10 5 18 8 18 5 0 -3 17 2 37 11 21 8 49 17 62 20 14 2
31 9 38 15 7 6 13 8 13 4 0 -3 17 1 38 9 20 8 93 35 162 60 69 25 134 50 145
55 11 5 81 35 155 66 147 62 378 174 511 249 139 78 254 148 257 157 2 4 8 8
13 8 9 0 209 134 248 165 9 8 50 40 92 72 304 232 584 529 784 833 220 336
353 693 401 1080 17 132 9 547 -12 655 -2 11 -7 40 -10 65 -3 25 -7 52 -9 60
-2 8 -7 31 -10 50 -6 37 -33 146 -59 240 -77 282 -247 631 -436 892 -46 63
-161 208 -189 238 -117 123 -210 217 -270 270 -41 36 -79 70 -85 75 -17 15
-146 117 -186 146 -305 224 -701 431 -1080 564 -74 26 -144 51 -155 55 -127
48 -601 162 -765 185 -25 3 -52 8 -60 10 -8 2 -35 7 -60 10 -25 3 -56 8 -70
10 -48 7 -105 15 -163 20 -32 4 -66 8 -75 10 -9 1 -64 6 -122 10 -58 4 -118
10 -135 13 -16 3 -1404 7 -3082 9 l-3053 4 0 -5401z"/>
</g>
</svg>
